<svg width="286" height="80" viewBox="0 0 286 80" fill="none" xmlns="http://www.w3.org/2000/svg">
<rect x="2.5" y="2.5" width="75" height="75" rx="5.5" stroke="black" stroke-width="5"/>
<path d="M8 77.5H46.2608C53.9878 77.5 53.9878 60.1926 46.2608 60.1926H21.0818C14.1622 60.1926 14.1622 41.3119 21.0818 41.3119H56.6478C66.8236 41.3119 66.8236 21.3808 56.6478 21.3808H34.0566C26.3164 21.3808 26.3164 2.5 34.0566 2.5H49.5237H73" stroke="white" stroke-width="5"/>
<path d="M100.636 63V16.4545H116.364C120 16.4545 122.985 17.0758 125.318 18.3182C127.652 19.5455 129.379 21.2348 130.5 23.3864C131.621 25.5379 132.182 27.9848 132.182 30.7273C132.182 33.4697 131.621 35.9015 130.5 38.0227C129.379 40.1439 127.659 41.8106 125.341 43.0227C123.023 44.2197 120.061 44.8182 116.455 44.8182H103.727V39.7273H116.273C118.758 39.7273 120.758 39.3636 122.273 38.6364C123.803 37.9091 124.909 36.8788 125.591 35.5455C126.288 34.197 126.636 32.5909 126.636 30.7273C126.636 28.8636 126.288 27.2348 125.591 25.8409C124.894 24.447 123.78 23.3712 122.25 22.6136C120.72 21.8409 118.697 21.4545 116.182 21.4545H106.273V63H100.636ZM122.545 42.0909L134 63H127.455L116.182 42.0909H122.545ZM154.653 63.7273C151.502 63.7273 148.737 62.9773 146.358 61.4773C143.994 59.9773 142.146 57.8788 140.812 55.1818C139.494 52.4848 138.835 49.3333 138.835 45.7273C138.835 42.0909 139.494 38.9167 140.812 36.2045C142.146 33.4924 143.994 31.3864 146.358 29.8864C148.737 28.3864 151.502 27.6364 154.653 27.6364C157.805 27.6364 160.563 28.3864 162.926 29.8864C165.305 31.3864 167.153 33.4924 168.472 36.2045C169.805 38.9167 170.472 42.0909 170.472 45.7273C170.472 49.3333 169.805 52.4848 168.472 55.1818C167.153 57.8788 165.305 59.9773 162.926 61.4773C160.563 62.9773 157.805 63.7273 154.653 63.7273ZM154.653 58.9091C157.047 58.9091 159.017 58.2955 160.562 57.0682C162.108 55.8409 163.252 54.2273 163.994 52.2273C164.737 50.2273 165.108 48.0606 165.108 45.7273C165.108 43.3939 164.737 41.2197 163.994 39.2045C163.252 37.1894 162.108 35.5606 160.562 34.3182C159.017 33.0758 157.047 32.4545 154.653 32.4545C152.259 32.4545 150.29 33.0758 148.744 34.3182C147.199 35.5606 146.055 37.1894 145.312 39.2045C144.57 41.2197 144.199 43.3939 144.199 45.7273C144.199 48.0606 144.57 50.2273 145.312 52.2273C146.055 54.2273 147.199 55.8409 148.744 57.0682C150.29 58.2955 152.259 58.9091 154.653 58.9091ZM188.932 63.8182C186.72 63.8182 184.712 63.4015 182.909 62.5682C181.106 61.7197 179.674 60.5 178.614 58.9091C177.553 57.303 177.023 55.3636 177.023 53.0909C177.023 51.0909 177.417 49.4697 178.205 48.2273C178.992 46.9697 180.045 45.9848 181.364 45.2727C182.682 44.5606 184.136 44.0303 185.727 43.6818C187.333 43.3182 188.947 43.0303 190.568 42.8182C192.689 42.5455 194.409 42.3409 195.727 42.2045C197.061 42.053 198.03 41.803 198.636 41.4545C199.258 41.1061 199.568 40.5 199.568 39.6364V39.4545C199.568 37.2121 198.955 35.4697 197.727 34.2273C196.515 32.9848 194.674 32.3636 192.205 32.3636C189.644 32.3636 187.636 32.9242 186.182 34.0455C184.727 35.1667 183.705 36.3636 183.114 37.6364L178.023 35.8182C178.932 33.697 180.144 32.0455 181.659 30.8636C183.189 29.6667 184.856 28.8333 186.659 28.3636C188.477 27.8788 190.265 27.6364 192.023 27.6364C193.144 27.6364 194.432 27.7727 195.886 28.0455C197.356 28.303 198.773 28.8409 200.136 29.6591C201.515 30.4773 202.659 31.7121 203.568 33.3636C204.477 35.0152 204.932 37.2273 204.932 40V63H199.568V58.2727H199.295C198.932 59.0303 198.326 59.8409 197.477 60.7045C196.629 61.5682 195.5 62.303 194.091 62.9091C192.682 63.5152 190.962 63.8182 188.932 63.8182ZM189.75 59C191.871 59 193.659 58.5833 195.114 57.75C196.583 56.9167 197.689 55.8409 198.432 54.5227C199.189 53.2045 199.568 51.8182 199.568 50.3636V45.4545C199.341 45.7273 198.841 45.9773 198.068 46.2045C197.311 46.4167 196.432 46.6061 195.432 46.7727C194.447 46.9242 193.485 47.0606 192.545 47.1818C191.621 47.2879 190.871 47.3788 190.295 47.4545C188.902 47.6364 187.598 47.9318 186.386 48.3409C185.189 48.7348 184.22 49.3333 183.477 50.1364C182.75 50.9242 182.386 52 182.386 53.3636C182.386 55.2273 183.076 56.6364 184.455 57.5909C185.848 58.5303 187.614 59 189.75 59ZM227.903 63.7273C224.994 63.7273 222.426 62.9924 220.199 61.5227C217.972 60.0379 216.229 57.947 214.972 55.25C213.714 52.5379 213.085 49.3333 213.085 45.6364C213.085 41.9697 213.714 38.7879 214.972 36.0909C216.229 33.3939 217.979 31.3106 220.222 29.8409C222.464 28.3712 225.055 27.6364 227.994 27.6364C230.267 27.6364 232.063 28.0152 233.381 28.7727C234.714 29.5152 235.729 30.3636 236.426 31.3182C237.138 32.2576 237.691 33.0303 238.085 33.6364H238.54V16.4545H243.903V63H238.722V57.6364H238.085C237.691 58.2727 237.131 59.0758 236.403 60.0455C235.676 61 234.638 61.8561 233.29 62.6136C231.941 63.3561 230.146 63.7273 227.903 63.7273ZM228.631 58.9091C230.782 58.9091 232.6 58.3485 234.085 57.2273C235.57 56.0909 236.699 54.5227 237.472 52.5227C238.244 50.5076 238.631 48.1818 238.631 45.5455C238.631 42.9394 238.252 40.6591 237.494 38.7045C236.737 36.7348 235.616 35.2045 234.131 34.1136C232.646 33.0076 230.813 32.4545 228.631 32.4545C226.358 32.4545 224.464 33.0379 222.949 34.2045C221.449 35.3561 220.32 36.9242 219.562 38.9091C218.82 40.8788 218.449 43.0909 218.449 45.5455C218.449 48.0303 218.828 50.2879 219.585 52.3182C220.358 54.3333 221.494 55.9394 222.994 57.1364C224.509 58.3182 226.388 58.9091 228.631 58.9091ZM257.926 76.0909C257.017 76.0909 256.206 76.0152 255.494 75.8636C254.782 75.7273 254.29 75.5909 254.017 75.4545L255.381 70.7273C256.684 71.0606 257.835 71.1818 258.835 71.0909C259.835 71 260.722 70.553 261.494 69.75C262.282 68.9621 263.002 67.6818 263.653 65.9091L264.653 63.1818L251.744 28.0909H257.562L267.199 55.9091H267.562L277.199 28.0909H283.017L268.199 68.0909C267.532 69.8939 266.706 71.3864 265.722 72.5682C264.737 73.7652 263.593 74.6515 262.29 75.2273C261.002 75.803 259.547 76.0909 257.926 76.0909Z" fill="white"/>
</svg>
